<svg width="251" height="234" viewBox="0 0 251 234" fill="none" xmlns="http://www.w3.org/2000/svg">
<g clip-path="url(#clip0_356_5819)">
<rect x="195.196" y="33.1241" width="44.623" height="44.623" rx="22.3115" fill="#0EAD00"/>
<rect x="195.196" y="33.1241" width="44.623" height="44.623" rx="22.3115" stroke="#0EAD00" stroke-width="3.11323"/>
<path d="M206.092 55.032L213.472 62.4114L228.231 47.6525" stroke="white" stroke-width="5.53463" stroke-linecap="round" stroke-linejoin="round"/>
<path d="M162.975 227.836C172.552 227.023 179.658 218.599 178.845 209.021L162.663 115.968C161.85 106.39 153.426 99.2847 143.848 100.098C134.271 100.911 127.165 109.335 127.978 118.913L144.16 211.966C144.973 221.544 153.397 228.649 162.975 227.836Z" fill="#CFCFCF" stroke="#262525" stroke-width="1.07791" stroke-linecap="round" stroke-linejoin="round"/>
<path d="M165.248 114.884L181.892 205.793C183.802 216.226 177.357 226.371 167.102 229.076C155.672 232.091 144.095 224.741 141.959 213.115L125.263 122.216C123.219 111.088 130.667 100.437 141.821 98.5369L141.873 98.5282C152.829 96.6628 163.247 103.952 165.248 114.884V114.884Z" fill="white" stroke="#262525" stroke-width="1.07791" stroke-linecap="round" stroke-linejoin="round"/>
<path d="M231.037 119.19C223.395 113.359 212.473 114.827 206.642 122.468L147.525 199.934C141.694 207.576 143.161 218.498 150.803 224.329C158.444 230.161 169.366 228.693 175.198 221.052L234.314 143.586C240.146 135.944 238.678 125.022 231.037 119.19Z" fill="#CFCFCF" stroke="#262525" stroke-width="1.07791" stroke-linecap="round" stroke-linejoin="round"/>
<path d="M145.522 198.01L180.115 149.367C181.106 147.975 182.658 147.088 184.361 146.942L185.155 146.874L184.906 144.926C184.81 144.178 185.005 143.421 185.449 142.811L187.748 139.657C188.832 138.17 190.76 137.567 192.498 138.171L194.155 138.748L194.691 140.123C198.644 150.258 208.425 156.918 219.304 156.879L224.12 156.863L224.87 157.821C226.204 159.528 226.352 161.879 225.242 163.74L224.876 164.354C224.338 165.255 223.488 165.926 222.487 166.24L220.869 166.747L177.8 222.041C171.07 230.681 158.667 232.354 149.889 225.805C141.124 219.266 139.185 206.924 145.523 198.011L145.522 198.01Z" fill="white"/>
<path d="M150.183 191.456L180.116 149.367C181.106 147.975 182.658 147.088 184.361 146.942L185.155 146.874L184.906 144.926C184.811 144.178 185.005 143.421 185.449 142.811L187.748 139.657C188.832 138.17 190.761 137.567 192.498 138.171L194.155 138.748L194.692 140.123C198.644 150.258 208.426 156.918 219.304 156.879L224.121 156.863L224.87 157.821C226.204 159.528 226.352 161.879 225.242 163.74L224.876 164.354C224.338 165.255 223.488 165.926 222.487 166.239L220.869 166.747L177.8 222.041C171.07 230.681 158.667 232.353 149.89 225.805C146.35 223.164 143.924 219.578 142.706 215.653C142.706 215.653 141.957 213.098 141.662 211.493C141.367 209.888 141.182 208.88 141.182 208.88" stroke="#262525" stroke-width="1.07791" stroke-linecap="round" stroke-linejoin="round"/>
<path d="M185.155 146.874C185.155 146.874 190.653 158.15 199.893 163.019" stroke="#262525" stroke-width="1.07791" stroke-linecap="round" stroke-linejoin="round"/>
<path d="M220.868 166.746C220.868 166.746 215.376 167.54 209.919 164.858" stroke="#262525" stroke-width="1.07791" stroke-linecap="round" stroke-linejoin="round"/>
<path d="M95.8999 96.8839L105.294 98.7648C109.538 99.6148 113.669 96.8624 114.518 92.6181L121.323 58.6298C122.173 54.3848 119.421 50.2548 115.176 49.4054L105.783 47.5245C101.538 46.6745 97.4078 49.4269 96.5584 53.6712L89.7532 87.6595C88.9032 91.9045 91.6556 96.0345 95.8999 96.8839Z" fill="#CFCFCF" stroke="#262525" stroke-width="1.07791" stroke-linecap="round" stroke-linejoin="round"/>
<path d="M100.748 59.3844L103.138 47.45C103.995 47.3277 104.886 47.3451 105.783 47.5245L115.176 49.4054C119.421 50.2555 122.173 54.3855 121.323 58.6298L115.806 86.1845C104.476 83.9159 98.2579 71.8229 100.748 59.3844Z" fill="#262525" stroke="#262525" stroke-width="1.07791" stroke-linecap="round" stroke-linejoin="round"/>
<path d="M118.352 82.0109C127.602 84.469 137.095 78.9628 139.553 69.7115L148.119 37.4737C151.331 25.3874 144.136 12.9859 132.05 9.7738C119.964 6.56238 107.562 13.7567 104.35 25.843L98.5125 47.8115C94.5471 62.7336 103.429 78.0448 118.352 82.0102V82.0109Z" fill="#CFCFCF" stroke="#262525" stroke-width="1.07791" stroke-linecap="round" stroke-linejoin="round"/>
<path d="M145.405 47.6845C145.405 47.6845 150.078 40.1186 152.787 33.9646C155.497 27.8105 153.912 20.3004 150.668 19.4382C150.668 19.4382 147.186 7.3425 126.943 3.89656C106.699 0.450621 101.599 19.0734 101.599 19.0734C101.599 19.0734 96.5353 19.5538 93.0713 26.1521C89.6072 32.7503 91.9974 43.6526 93.4912 45.3063C93.4912 45.3063 89.3982 54.7686 95.2451 60.2278L97.8094 51.9106L104.651 42.2495C104.651 42.2495 107.272 31.7557 110.52 29.1236C114.935 25.5439 115.223 20.1156 115.223 20.1156C115.223 20.1156 120.801 17.5164 125.931 22.102C130.916 26.5573 131.667 39.5763 147.292 40.587L145.406 47.6852L145.405 47.6845Z" fill="#262525" stroke="#262525" stroke-width="1.07791" stroke-linecap="round" stroke-linejoin="round"/>
<path d="M124.631 47.8639C124.631 47.8639 122.987 41.8402 113.923 43.3965" stroke="#262525" stroke-width="1.07791" stroke-linecap="round" stroke-linejoin="round"/>
<path d="M119.117 45.5019C118.759 46.8499 119.516 47.19 120.492 47.4493C121.468 47.7087 122.294 47.7894 122.652 46.4414C123.132 44.6364 122.341 44.4261 121.364 44.1667C120.388 43.9073 119.591 43.7191 119.117 45.5019Z" fill="#262525"/>
<path d="M133.637 50.2569C133.637 50.2569 138.054 45.8433 145.151 51.6942" stroke="#262525" stroke-width="1.07791" stroke-linecap="round" stroke-linejoin="round"/>
<path d="M141.43 51.3757C141.072 52.7237 140.246 52.6431 139.27 52.3837C138.293 52.1243 137.536 51.7843 137.895 50.4363C138.374 48.6314 139.165 48.8417 140.142 49.1011C141.118 49.3605 141.904 49.593 141.43 51.3757Z" fill="#262525"/>
<path d="M131.064 46.0388C131.064 46.0388 131.217 55.3585 130.641 60.8701C130.568 61.5677 129.927 62.0663 129.233 61.9621C127.962 61.7719 124.192 60.5933 124.192 60.5933" stroke="#262525" stroke-width="1.07791" stroke-linecap="round" stroke-linejoin="round"/>
<path d="M120.814 66.7776C114.07 65.0976 112.959 58.949 112.959 58.949" stroke="#262525" stroke-width="1.07791" stroke-linecap="round" stroke-linejoin="round"/>
<path d="M118.708 39.7113L123.552 40.9988C124.213 41.1742 124.891 40.7811 125.067 40.1199C125.243 39.4586 124.85 38.7806 124.188 38.6046L119.344 37.317C118.683 37.1416 118.005 37.5347 117.829 38.196C117.653 38.8572 118.046 39.5352 118.708 39.7113Z" fill="#262525" stroke="#262525" stroke-width="1.07791" stroke-linecap="round" stroke-linejoin="round"/>
<path d="M137.487 44.7014L142.331 45.9889C142.992 46.1643 143.67 45.7712 143.846 45.11C144.022 44.4488 143.629 43.7707 142.967 43.5947L138.123 42.3071C137.462 42.1318 136.784 42.5249 136.608 43.1861C136.432 43.8473 136.825 44.5254 137.487 44.7014Z" fill="#262525" stroke="#262525" stroke-width="1.07791" stroke-linecap="round" stroke-linejoin="round"/>
<path d="M92.8817 47.8471L96.9707 51.3125C100.299 54.1335 105.431 52.5234 106.552 48.3067C107.141 46.0905 106.401 43.7325 104.652 42.2501L100.562 38.7847C97.2341 35.9637 92.1022 37.5738 90.9813 41.7905C90.3926 44.0067 91.1318 46.3647 92.8817 47.8471Z" fill="#CFCFCF"/>
<path d="M105.672 43.3668C105.385 42.9583 105.043 42.582 104.651 42.2493L100.562 38.7839C97.2334 35.9629 92.1014 37.573 90.9806 41.7897C90.3919 44.0059 91.1311 46.3639 92.8809 47.8463L96.97 51.3117C97.3893 51.6672 97.8382 51.9528 98.3032 52.1712" stroke="#262525" stroke-width="1.07791" stroke-linecap="round" stroke-linejoin="round"/>
<path d="M100.741 48.9303C101.485 48.386 102.054 47.5924 102.31 46.6321C102.902 44.4004 101.574 42.111 99.3428 41.5183C97.8725 41.1272 96.3766 41.5714 95.3579 42.5579" stroke="#262525" stroke-width="1.07791" stroke-linecap="round" stroke-linejoin="round"/>
<path d="M102.354 45.9318C101.897 45.5468 101.484 45.2894 100.868 45.1261C99.4737 44.7559 98.0564 45.1355 97.0444 46.0172" stroke="#262525" stroke-width="1.07791" stroke-linecap="round" stroke-linejoin="round"/>
<path d="M131.405 230.12H22.209L42.3134 92.5817C43.398 85.7133 49.5212 80.7924 56.4621 81.211L90.597 83.2707L115.396 88.236L150.15 100.781C156.636 103.122 160.315 109.975 158.683 116.674L131.405 230.12L131.405 230.12Z" fill="#CFCFCF"/>
<path d="M115.396 88.2359L150.15 100.781C156.636 103.122 160.315 109.975 158.683 116.674L131.405 230.12H22.209L42.3134 92.5823C43.398 85.714 49.5212 80.793 56.4621 81.2117L90.6299 83.2773" stroke="#262525" stroke-width="1.07791" stroke-linecap="round" stroke-linejoin="round"/>
<path d="M79.7723 282.512L79.0371 259.545C78.5715 244.991 90.2445 232.939 104.806 232.939C119.368 232.939 131.041 244.991 130.576 259.545L129.841 282.512H79.7716H79.7723Z" fill="#CFCFCF" stroke="#262525" stroke-width="1.07791" stroke-linecap="round" stroke-linejoin="round"/>
<path d="M74.4173 284.486H132.228L132.791 258.843C133.136 243.082 120.455 230.12 104.69 230.12C88.9255 230.12 72.7165 243.424 73.3777 259.39L74.4173 284.486Z" fill="#262525" stroke="#262525" stroke-width="1.07791" stroke-linecap="round" stroke-linejoin="round"/>
<path d="M22.2092 230.12L23.0962 269.073H130.519L131.405 230.12H22.2092Z" fill="#CFCFCF" stroke="#262525" stroke-width="1.07791" stroke-linecap="round" stroke-linejoin="round"/>
<path d="M132.527 270.874L134.646 209.604L20.5894 205.479L18.7603 224.771L19.0734 270.874H132.527Z" fill="#262525" stroke="#262525" stroke-width="1.07791" stroke-linecap="round" stroke-linejoin="round"/>
<path d="M21.8487 282.512L21.1136 259.545C20.6479 244.991 32.3209 232.939 46.8829 232.939C61.4448 232.939 73.1179 244.991 72.6515 259.545L71.917 282.512H21.8487Z" fill="#CFCFCF" stroke="#262525" stroke-width="1.07791" stroke-linecap="round" stroke-linejoin="round"/>
<path d="M73.9052 284.486H19.4562L18.7708 260.141C18.3299 244.471 30.9122 231.529 46.5883 231.529C62.2644 231.529 74.733 244.341 74.4112 259.932L73.9045 284.485L73.9052 284.486Z" fill="#262525" stroke="#262525" stroke-width="1.07791" stroke-linecap="round" stroke-linejoin="round"/>
<path d="M40.6656 92.0758L20.6788 199.95C18.7394 210.417 17.4465 220.994 16.8081 231.62L15.1174 259.758H29.1599L33.3477 232.929C34.2576 227.098 36.2252 221.482 39.153 216.358L42.1427 211.125L40.6502 221.688C40.3176 224.042 40.159 226.417 40.1744 228.795L40.3827 259.757H137.035L137.662 221.322L160.829 117.473C162.642 109.343 158.004 101.161 150.098 98.541L119.055 88.2556C118.385 88.0331 117.66 88.3234 117.327 88.9464C116.181 91.0934 113.144 95.6649 108.076 95.6649C98.6943 95.6649 91.0027 86.7765 88.296 83.2123C87.5911 82.2843 86.5253 81.7158 85.3614 81.6452L56.249 79.888C48.7228 79.4337 42.0392 84.6604 40.6656 92.0738V92.0758Z" fill="white"/>
<path opacity="0.3" d="M156.949 134.865L137.663 221.323L137.036 259.758H40.3834L40.1751 228.795C40.159 226.418 40.3182 224.043 40.6509 221.689L42.1433 211.126L39.1537 216.359C36.2258 221.483 34.2583 227.098 33.3484 232.929L29.1606 259.758H15.1174L16.8081 231.62C17.4465 220.994 18.7394 210.417 20.6788 199.95L40.6656 92.0764C42.0392 84.663 48.7234 79.4363 56.249 79.8906L85.3614 81.6478C86.5246 81.7177 87.5911 82.2869 88.296 83.2149C91.0027 86.7791 98.6943 95.6674 108.076 95.6674C113.144 95.6674 116.181 91.0959 117.327 88.9489C117.66 88.326 118.385 88.0357 119.055 88.2581L150.098 98.5435C150.803 98.7774 151.481 99.0549 152.132 99.3728C152.132 99.3728 156.487 101.151 158.508 103.145" stroke="#262525" stroke-width="1.07791" stroke-linecap="round" stroke-linejoin="round"/>
<path d="M140.463 208.774L20.6565 200.085C20.6646 200.039 20.6706 199.994 20.6793 199.95L28.3689 158.447L147.941 175.251L140.463 208.774V208.774Z" fill="#262525" stroke="#262525" stroke-width="1.07791" stroke-linecap="round" stroke-linejoin="round"/>
<path d="M28.3686 158.446L147.941 175.25L146.098 183.512L26.1914 170.197L28.3686 158.446Z" fill="white" stroke="#262525" stroke-width="1.07791" stroke-linecap="round" stroke-linejoin="round"/>
<path d="M140.463 208.773L20.6565 200.085C20.6646 200.039 20.6706 199.994 20.6793 199.95L23.2934 185.845L142.922 197.751L140.463 208.774L140.463 208.773Z" fill="white" stroke="#262525" stroke-width="1.07791" stroke-linecap="round" stroke-linejoin="round"/>
<path d="M22.6748 206.384C31.7319 209.605 41.6846 204.874 44.9061 195.818L68.6588 104.403C71.8796 95.3465 67.1488 85.3937 58.0925 82.1722C49.0355 78.9514 39.0827 83.6821 35.8612 92.7385L12.1085 184.153C8.88771 193.21 13.6185 203.163 22.6748 206.385V206.384Z" fill="#CFCFCF" stroke="#262525" stroke-width="1.07791" stroke-linecap="round" stroke-linejoin="round"/>
<path d="M72.3519 105.162L48.7914 194.5C46.0867 204.756 35.9417 211.201 25.5078 209.291C13.8811 207.163 6.52418 195.589 9.53199 184.158L33.0414 94.8055C35.9242 83.8495 47.2069 77.3648 58.1246 80.3894C68.8481 83.3603 75.1897 94.401 72.3519 105.161V105.162Z" fill="white"/>
<path d="M68.742 118.849L48.7914 194.5C46.0867 204.756 35.9417 211.201 25.5078 209.291C13.8811 207.163 6.52418 195.589 9.53199 184.158L33.0414 94.8055C35.7159 84.641 45.621 78.325 55.7565 79.8807L60.5814 80.1501" stroke="#262525" stroke-width="1.07791" stroke-linecap="round" stroke-linejoin="round"/>
<path d="M132.447 141.243C128.337 132.553 117.961 128.841 109.271 132.951L21.1792 174.611C12.4897 178.721 8.77632 189.096 12.8862 197.786C16.996 206.476 27.3715 210.189 36.0616 206.079L124.154 164.419C132.843 160.309 136.556 149.934 132.447 141.243Z" fill="#CFCFCF" stroke="#262525" stroke-width="1.07791" stroke-linecap="round" stroke-linejoin="round"/>
<path d="M20.3438 171.052L70.3442 146.991C71.1748 146.591 72.1075 146.456 73.0167 146.603L74.6993 146.874L74.8008 146.116C74.9231 145.2 75.5071 144.411 76.3477 144.026L80.1297 142.293C81.7592 141.547 83.6804 142.339 84.3094 144.017L84.5439 144.644L84.636 147.636C84.974 158.653 92.1091 168.304 102.542 171.859L105.959 173.022L106.584 174.274C107.249 175.606 106.908 177.22 105.761 178.17L105.003 178.798C103.966 179.656 102.663 180.126 101.317 180.126H100.202L37.3201 207.873C26.9937 212.43 14.9336 207.676 10.4931 197.299C6.22536 187.324 10.5657 175.756 20.3424 171.051L20.3438 171.052Z" fill="white"/>
<path d="M74.7 146.874C74.7 146.874 74.7 162.076 82.2511 169.515" stroke="#262525" stroke-width="1.07791" stroke-linecap="round" stroke-linejoin="round"/>
<path d="M100.203 180.126C100.203 180.126 94.9361 178.934 91.0278 175.158" stroke="#262525" stroke-width="1.07791" stroke-linecap="round" stroke-linejoin="round"/>
<path d="M27.471 167.622L70.3451 146.99C71.1756 146.591 72.1083 146.456 73.0175 146.602L74.7002 146.873L74.8017 146.115C74.924 145.2 75.5079 144.41 76.3486 144.025L80.1305 142.293C81.7601 141.546 83.6813 142.338 84.3103 144.017L84.5448 144.643L84.6368 147.636C84.9749 158.652 92.11 168.304 102.543 171.858L105.96 173.022L106.585 174.274C107.25 175.606 106.908 177.22 105.762 178.169L105.003 178.798C103.967 179.656 102.664 180.125 101.318 180.125H100.203L37.321 207.872C26.9946 212.429 14.9345 207.675 10.494 197.298C8.49417 192.624 8.38464 187.6 9.83881 183.096L12.0328 174.651" stroke="#262525" stroke-width="1.07791" stroke-linecap="round" stroke-linejoin="round"/>
<path d="M128.431 162.974L115.42 163.018C104.989 163.054 96.5034 154.626 96.4678 144.194L96.4026 125.132L137.032 124.993L137.038 126.471C137.053 130.923 140.674 134.518 145.124 134.503L147.222 134.495L147.255 144.02C147.291 154.452 138.863 162.937 128.431 162.973L128.431 162.974Z" fill="#CFCFCF"/>
<path d="M104.383 159.506C99.6083 156.093 96.4883 150.512 96.4668 144.194L96.4016 125.132L137.031 124.993L137.037 126.471C137.052 130.923 140.673 134.518 145.123 134.503L147.221 134.496L147.254 144.02C147.29 154.452 138.862 162.937 128.43 162.973L126.59 163.018C126.59 163.018 125.214 163.912 124.409 164.295" stroke="#262525" stroke-width="1.07791" stroke-linecap="round" stroke-linejoin="round"/>
<path d="M137.036 126.39L126.878 126.425L126.784 103.994C126.774 101.189 129.04 98.9076 131.845 98.8975C134.65 98.8881 136.932 101.154 136.941 103.959L137.036 126.39Z" fill="#CFCFCF"/>
<path d="M126.879 126.425L126.784 103.994C126.775 101.189 129.041 98.9077 131.846 98.8976C134.65 98.8882 136.933 101.154 136.942 103.959L137.037 126.39" fill="#CFCFCF"/>
<path d="M126.879 126.425L126.784 103.994C126.775 101.189 129.041 98.9077 131.846 98.8976C134.65 98.8882 136.933 101.154 136.942 103.959L137.037 126.39" stroke="#262525" stroke-width="1.07791" stroke-linecap="round" stroke-linejoin="round"/>
<path d="M128.223 107.496C126.275 105.495 126.309 102.295 128.3 100.335L134.556 94.2032C136.566 92.247 139.781 92.2907 141.737 94.3006C143.694 96.3105 143.65 99.526 141.64 101.482L135.426 107.572C133.419 109.548 130.188 109.514 128.224 107.495L128.223 107.496Z" fill="#CFCFCF"/>
<path d="M136.956 107.418L136.951 106.079L141.64 101.482C143.65 99.526 143.693 96.3106 141.737 94.3007C139.781 92.2908 136.566 92.2471 134.556 94.2032L128.3 100.335C127.28 101.338 126.774 102.668 126.784 103.994V107.349" fill="#CFCFCF"/>
<path d="M136.956 107.418L136.951 106.079L141.64 101.482C143.65 99.526 143.693 96.3106 141.737 94.3007C139.781 92.2908 136.566 92.2471 134.556 94.2032L128.3 100.335C127.28 101.338 126.774 102.668 126.784 103.994V107.349" stroke="#262525" stroke-width="1.07791" stroke-linecap="round" stroke-linejoin="round"/>
<path d="M136.951 106.079L133.383 105.212" stroke="#262525" stroke-width="1.07791" stroke-linecap="round" stroke-linejoin="round"/>
<path d="M126.879 126.425L116.721 126.46L116.613 116.335C116.604 113.53 118.87 111.249 121.674 111.239C124.479 111.23 126.761 113.495 126.771 116.3L126.879 126.425Z" fill="#CFCFCF"/>
<path d="M116.721 126.459L116.613 116.334C116.604 113.53 118.87 111.248 121.674 111.238C124.479 111.229 126.761 113.495 126.771 116.299L126.879 126.424" fill="#CFCFCF"/>
<path d="M116.721 126.459L116.613 116.334C116.604 113.53 118.87 111.248 121.674 111.238C124.479 111.229 126.761 113.495 126.771 116.299L126.879 126.424" stroke="#262525" stroke-width="1.07791" stroke-linecap="round" stroke-linejoin="round"/>
<path d="M129.227 123.895C127.238 125.866 124.03 125.857 122.054 123.874L118.086 119.893C116.111 117.902 116.124 114.686 118.116 112.711C120.108 110.736 123.323 110.75 125.298 112.741L129.247 116.703C131.231 118.694 131.222 121.917 129.227 123.895Z" fill="#CFCFCF"/>
<path d="M118.498 120.307L122.054 123.874C124.03 125.857 127.239 125.867 129.226 123.895C131.222 121.917 131.232 118.693 129.247 116.703L125.298 112.741C123.323 110.75 120.108 110.736 118.116 112.711C117.11 113.708 116.609 115.022 116.613 116.335L116.648 119.531" fill="#CFCFCF"/>
<path d="M118.498 120.307L122.054 123.874C124.03 125.857 127.239 125.867 129.226 123.895C131.222 121.917 131.232 118.693 129.247 116.703L125.298 112.741C123.323 110.75 120.108 110.736 118.116 112.711C117.11 113.708 116.609 115.022 116.613 116.335L116.648 119.531" stroke="#262525" stroke-width="1.07791" stroke-linecap="round" stroke-linejoin="round"/>
<path d="M125.732 134.865C122.938 134.874 120.661 132.627 120.636 129.833L120.575 120.296C120.565 117.491 122.831 115.21 125.636 115.2C128.441 115.191 130.722 117.457 130.732 120.261L130.794 129.739C130.82 132.555 128.549 134.855 125.733 134.864L125.732 134.865Z" fill="#CFCFCF"/>
<path d="M120.581 121.341L120.635 129.833C120.661 132.627 122.937 134.875 125.731 134.865C128.547 134.856 130.818 132.556 130.791 129.74L130.73 120.262C130.725 118.711 130.025 117.326 128.927 116.398L127.059 114.509" fill="#CFCFCF"/>
<path d="M120.581 121.341L120.635 129.833C120.661 132.627 122.937 134.875 125.731 134.865C128.547 134.856 130.818 132.556 130.791 129.74L130.73 120.262C130.725 118.711 130.025 117.326 128.927 116.398L127.059 114.509" stroke="#262525" stroke-width="1.07791" stroke-linecap="round" stroke-linejoin="round"/>
<path d="M116.721 126.459L106.563 126.494L106.468 116.334C106.459 113.53 108.725 111.248 111.53 111.238C114.335 111.229 116.616 113.495 116.626 116.299L116.721 126.459Z" fill="#CFCFCF"/>
<path d="M106.564 126.494L106.469 116.334C106.46 113.53 108.726 111.248 111.53 111.238C114.335 111.229 116.617 113.495 116.627 116.299L116.722 126.459" fill="#CFCFCF"/>
<path d="M106.564 126.494L106.469 116.334C106.46 113.53 108.726 111.248 111.53 111.238C114.335 111.229 116.617 113.495 116.627 116.299L116.722 126.459" stroke="#262525" stroke-width="1.07791" stroke-linecap="round" stroke-linejoin="round"/>
<path d="M119.082 123.895C117.095 125.866 113.886 125.856 111.91 123.874L107.941 119.893C105.966 117.902 105.98 114.686 107.972 112.711C109.963 110.736 113.179 110.75 115.154 112.741L119.103 116.703C121.087 118.694 121.077 121.917 119.082 123.895Z" fill="#CFCFCF"/>
<path d="M108.713 120.668L111.909 123.874C113.886 125.857 117.094 125.867 119.082 123.895C121.078 121.917 121.087 118.693 119.103 116.703L115.154 112.741C113.179 110.75 109.963 110.736 107.972 112.711C106.966 113.708 106.464 115.022 106.469 116.335L106.499 119.609" fill="#CFCFCF"/>
<path d="M108.713 120.668L111.909 123.874C113.886 125.857 117.094 125.867 119.082 123.895C121.078 121.917 121.087 118.693 119.103 116.703L115.154 112.741C113.179 110.75 109.963 110.736 107.972 112.711C106.966 113.708 106.464 115.022 106.469 116.335L106.499 119.609" stroke="#262525" stroke-width="1.07791" stroke-linecap="round" stroke-linejoin="round"/>
<path d="M115.524 133.078C112.73 133.087 110.454 130.839 110.428 128.046L110.367 120.297C110.358 117.492 112.623 115.21 115.428 115.2C118.233 115.191 120.515 117.457 120.525 120.262L120.586 127.952C120.612 130.768 118.341 133.068 115.525 133.077L115.524 133.078Z" fill="#CFCFCF"/>
<path d="M110.367 121.138L110.428 128.046C110.454 130.839 112.73 133.087 115.524 133.078C118.34 133.068 120.611 130.769 120.584 127.953L120.523 120.262C120.519 118.869 119.953 117.608 119.041 116.693L117.071 114.666" fill="#CFCFCF"/>
<path d="M110.367 121.138L110.428 128.046C110.454 130.839 112.73 133.087 115.524 133.078C118.34 133.068 120.611 130.769 120.584 127.953L120.523 120.262C120.519 118.869 119.953 117.608 119.041 116.693L117.071 114.666" stroke="#262525" stroke-width="1.07791" stroke-linecap="round" stroke-linejoin="round"/>
<path d="M106.564 127.918L96.4066 127.952L96.3421 117.758C96.3327 114.953 98.5986 112.672 101.403 112.661C104.208 112.652 106.49 114.918 106.5 117.723L106.564 127.918Z" fill="#CFCFCF"/>
<path d="M96.4066 127.952L96.3421 117.758C96.3327 114.953 98.5986 112.672 101.403 112.661C104.208 112.652 106.49 114.918 106.5 117.723L106.564 127.918" fill="#CFCFCF"/>
<path d="M96.4066 127.952L96.3421 117.758C96.3327 114.953 98.5986 112.672 101.403 112.661C104.208 112.652 106.49 114.918 106.5 117.723L106.564 127.918" stroke="#262525" stroke-width="1.07791" stroke-linecap="round" stroke-linejoin="round"/>
<path d="M108.955 125.318C106.968 127.289 103.759 127.28 101.783 125.297L97.8145 121.316C95.8395 119.325 95.853 116.109 97.8447 114.134C99.8365 112.159 103.052 112.173 105.027 114.164L108.976 118.127C110.96 120.117 110.95 123.34 108.955 125.318Z" fill="#CFCFCF"/>
<path d="M98.1953 121.698L101.782 125.297C103.759 127.28 106.967 127.29 108.955 125.318C110.951 123.34 110.96 120.116 108.976 118.127L105.027 114.164C103.052 112.173 99.8363 112.159 97.8446 114.134C96.7768 115.193 96.2775 116.609 96.3487 118.002V121.104" fill="#CFCFCF"/>
<path d="M98.1953 121.698L101.782 125.297C103.759 127.28 106.967 127.29 108.955 125.318C110.951 123.34 110.96 120.116 108.976 118.127L105.027 114.164C103.052 112.173 99.8363 112.159 97.8446 114.134C96.7768 115.193 96.2775 116.609 96.3487 118.002V121.104" stroke="#262525" stroke-width="1.07791" stroke-linecap="round" stroke-linejoin="round"/>
<path d="M105.422 132.302C102.629 132.312 100.352 130.064 100.327 127.27L100.266 121.72C100.256 118.915 102.522 116.633 105.327 116.623C108.132 116.614 110.413 118.88 110.423 121.685L110.485 127.177C110.511 129.993 108.24 132.293 105.424 132.302H105.422Z" fill="#CFCFCF"/>
<path d="M100.266 121.72L100.327 127.27C100.352 130.064 102.629 132.312 105.422 132.302C108.239 132.293 110.509 129.993 110.483 127.177L110.422 121.685C110.417 120.19 109.766 118.848 108.735 117.922L106.887 116.031" fill="#CFCFCF"/>
<path d="M100.266 121.72L100.327 127.27C100.352 130.064 102.629 132.312 105.422 132.302C108.239 132.293 110.509 129.993 110.483 127.177L110.422 121.685C110.417 120.19 109.766 118.848 108.735 117.922L106.887 116.031" stroke="#262525" stroke-width="1.07791" stroke-linecap="round" stroke-linejoin="round"/>
<path d="M145.148 147.44L135.393 144.609L141.943 122.042C142.724 119.348 145.542 117.798 148.236 118.579C150.93 119.361 152.48 122.179 151.698 124.873L145.149 147.44H145.148Z" fill="#CFCFCF"/>
<path d="M147.246 141.786L147.241 140.229L151.697 124.873C152.479 122.179 150.929 119.362 148.235 118.579C145.541 117.797 142.724 119.347 141.942 122.041L138.485 133.951L131.208 139.344C127.251 142.276 124.918 146.91 124.918 151.834V153.817" fill="#CFCFCF"/>
<path d="M147.246 141.786L147.241 140.229L151.697 124.873C152.479 122.179 150.929 119.362 148.235 118.579C145.541 117.797 142.724 119.347 141.942 122.041L138.485 133.951L131.208 139.344C127.251 142.276 124.918 146.91 124.918 151.834V153.817" stroke="#262525" stroke-width="1.07791" stroke-linecap="round" stroke-linejoin="round"/>
<path d="M151.706 124.875C150.927 127.558 148.128 129.108 145.441 128.345L137.99 126.219C135.296 125.438 133.746 122.62 134.527 119.926C135.309 117.232 138.127 115.682 140.821 116.464L148.216 118.574C150.925 119.343 152.491 122.17 151.706 124.875Z" fill="#CFCFCF"/>
<path d="M142.885 127.616L137.99 126.219C135.296 125.437 133.746 122.619 134.527 119.925C135.309 117.231 138.127 115.682 140.821 116.463L148.216 118.573C150.925 119.343 152.491 122.17 151.706 124.875L150.664 128.435" fill="#CFCFCF"/>
<path d="M142.885 127.616L137.99 126.219C135.296 125.437 133.746 122.619 134.527 119.925C135.309 117.231 138.127 115.682 140.821 116.463L148.216 118.573C150.925 119.343 152.491 122.17 151.706 124.875L150.664 128.435" stroke="#262525" stroke-width="1.07791" stroke-linecap="round" stroke-linejoin="round"/>
<path d="M237.572 105.305L230.208 113.315L211.678 96.2804C209.466 94.247 209.322 90.8057 211.355 88.5936C213.388 86.3814 216.83 86.2369 219.042 88.2703L237.572 105.305Z" fill="#CFCFCF" stroke="#262525" stroke-width="1.07791" stroke-linecap="round" stroke-linejoin="round"/>
<path d="M168.957 157.361H206.907C208.838 157.361 210.47 155.928 210.718 154.013L220.836 75.9924C221.134 73.6929 219.343 71.6555 217.025 71.6555H179.075C177.144 71.6555 175.512 73.0888 175.264 75.004L165.146 153.024C164.848 155.324 166.639 157.361 168.957 157.361Z" fill="white" stroke="#262525" stroke-width="1.07791" stroke-linecap="round" stroke-linejoin="round"/>
<path d="M171.585 157.361H209.535C211.466 157.361 213.097 155.928 213.345 154.013L223.463 75.9924C223.762 73.6929 221.971 71.6554 219.653 71.6554H181.703C179.772 71.6554 178.14 73.0887 177.892 75.0039L167.774 153.024C167.476 155.324 169.266 157.361 171.585 157.361Z" fill="#262525" stroke="#262525" stroke-width="1.07791" stroke-linecap="round" stroke-linejoin="round"/>
<path d="M181.462 91.6637H187.195C188.031 91.6637 188.738 91.0462 188.85 90.2176L190.268 79.7461C190.403 78.7435 189.624 77.8517 188.613 77.8517H182.879C182.043 77.8517 181.336 78.4693 181.224 79.2979L179.807 89.7694C179.671 90.772 180.451 91.6637 181.462 91.6637Z" fill="white" stroke="#262525" stroke-width="1.07791" stroke-linecap="round" stroke-linejoin="round"/>
<path d="M241.137 117.189L238.148 134.639C236.262 145.653 225.803 153.052 214.79 151.166L205.824 149.629L213.171 106.733L214.628 106.982C218.885 107.712 223.132 105.635 225.17 101.828L227.17 98.0921L227.689 98.1808C236.651 99.7163 242.672 108.226 241.137 117.188V117.189Z" fill="#CFCFCF"/>
<path d="M228.153 96.6466L230.84 99.0463C238.012 101.806 242.485 109.323 241.137 117.188L238.148 134.639C237.616 137.745 236.402 140.564 234.685 142.969C234.685 142.969 233.786 144.587 232.604 146.034C231.423 147.48 229.491 149.905 229.491 149.905" stroke="#262525" stroke-width="1.07791" stroke-linecap="round" stroke-linejoin="round"/>
<path d="M224.441 102.991C222.221 106.049 218.429 107.634 214.628 106.983L213.171 106.734L205.824 149.63L214.79 151.166C218.223 151.754 221.601 151.44 224.683 150.396" stroke="#262525" stroke-width="1.07791" stroke-linecap="round" stroke-linejoin="round"/>
<path d="M209.276 139.182L207.439 149.906L187.507 146.492C184.545 145.984 182.556 143.173 183.063 140.211C183.57 137.25 186.382 135.261 189.343 135.767L209.275 139.182H209.276Z" fill="#CFCFCF"/>
<path d="M207.439 149.906L187.507 146.492C184.546 145.984 182.557 143.173 183.063 140.211C183.571 137.25 186.382 135.261 189.344 135.767L209.275 139.182" stroke="#262525" stroke-width="1.07791" stroke-linecap="round" stroke-linejoin="round"/>
<path d="M211.113 128.458L209.276 139.182L180.153 134.194C177.191 133.686 175.202 130.875 175.709 127.913C176.216 124.952 179.028 122.963 181.989 123.469L211.113 128.458H211.113Z" fill="#CFCFCF"/>
<path d="M209.276 139.182L180.153 134.194C177.191 133.686 175.202 130.875 175.709 127.913C176.216 124.952 179.028 122.963 181.989 123.469L211.113 128.458" stroke="#262525" stroke-width="1.07791" stroke-linecap="round" stroke-linejoin="round"/>
<path d="M212.95 117.734L211.113 128.458L177.889 122.767C174.927 122.26 172.938 119.448 173.445 116.487C173.952 113.525 176.764 111.536 179.725 112.043L212.949 117.734H212.95Z" fill="#CFCFCF"/>
<path d="M211.113 128.458L177.89 122.767C174.928 122.259 172.939 119.448 173.446 116.486C173.953 113.525 176.765 111.536 179.726 112.042L212.95 117.733" stroke="#262525" stroke-width="1.07791" stroke-linecap="round" stroke-linejoin="round"/>
<path d="M214.787 107.01L212.95 117.734L183.826 112.746C180.865 112.239 178.876 109.427 179.383 106.466C179.889 103.504 182.701 101.515 185.663 102.022L214.786 107.01H214.787Z" fill="#CFCFCF"/>
<path d="M212.95 117.734L183.826 112.746C180.865 112.239 178.876 109.427 179.383 106.466C179.889 103.504 182.701 101.515 185.663 102.022L214.786 107.01" stroke="#262525" stroke-width="1.07791" stroke-linecap="round" stroke-linejoin="round"/>
</g>
<defs>
<clipPath id="clip0_356_5819">
<rect width="251" height="233.291" fill="white"/>
</clipPath>
</defs>
</svg>
